<svg width="618" height="209" viewBox="0 0 618 209" fill="none" xmlns="http://www.w3.org/2000/svg">
<path fill-rule="evenodd" clip-rule="evenodd" d="M45.1996 27.808H166.149V110.024C166.149 134.451 146.164 154.436 121.738 154.436C43.2803 154.436 55.9372 154.436 0.787842 154.436V72.2198C0.787842 47.7931 20.7729 27.808 45.1996 27.808Z" fill="url(#paint0_linear_2182_4325)"/>
<path fill-rule="evenodd" clip-rule="evenodd" d="M22.8886 164.472H58.1391V186.573C58.1391 198.728 48.1941 208.674 36.0384 208.674H0.787842V186.573C0.787842 174.417 10.7329 164.472 22.8886 164.472Z" fill="#FBBC05"/>
<path fill-rule="evenodd" clip-rule="evenodd" d="M45.1996 27.8081H161.925L160.361 13.4625L40.124 26.5722C15.8413 29.2197 -1.85971 51.2532 0.787851 75.5359V72.2198C0.787851 49.0921 18.7039 29.9461 41.3429 27.9751C42.6144 27.8648 43.9005 27.8081 45.1996 27.8081Z" fill="#2685D9" fill-opacity="0.701961"/>
<path fill-rule="evenodd" clip-rule="evenodd" d="M40.124 26.5722L155.017 14.0453L151.891 0.526672L38.1299 26.8352C38.7895 26.7328 39.4543 26.6451 40.124 26.5722Z" fill="#2685D9" fill-opacity="0.901961"/>
<path d="M232.262 92.2588V76.9537H240.349C246.263 76.9537 248.785 79.9103 248.785 84.6063C248.785 89.3022 246.263 92.2588 240.349 92.2588H232.262ZM263.916 84.6063C263.916 73.3882 256.437 64.953 241.48 64.953H217.392V126H232.262V104.086H241.48C257.046 104.086 263.916 94.6938 263.916 84.6063ZM313.312 126H329.052L306.964 64.953H289.745L267.657 126H283.223L286.876 115.217H309.659L313.312 126ZM305.833 103.738H290.789L298.268 81.3887L305.833 103.738ZM348.036 126H366.037L376.124 85.8237L385.864 126H403.865L419.779 64.953H403.778L394.908 109.39L384.473 64.953H368.124L357.254 109.39L348.471 64.953H332.557L348.036 126ZM468.891 126H484.631L462.543 64.953H445.324L423.236 126H438.802L442.455 115.217H465.239L468.891 126ZM461.412 103.738H446.368L453.847 81.3887L461.412 103.738ZM531.095 64.953V102.781L506.224 64.953H491.354V126H506.224V88.3456L531.095 126H545.965V64.953H531.095ZM585.268 64.2573C567.006 64.2573 554.222 77.1276 554.222 95.3894C554.222 113.651 567.093 126.435 585.355 126.435C601.442 126.435 611.617 115.912 614.747 105.39V91.5632H582.398V102.52H601.268C599.007 109.39 593.877 113.303 586.485 113.303C575.789 113.303 569.354 106.694 569.354 95.3894C569.354 84.7802 575.702 77.9972 585.268 77.9972C590.833 77.9972 595.007 80.1712 597.268 84.2584H613.704C610.486 71.736 599.877 64.2573 585.268 64.2573Z" fill="#2685D9"/>
<path d="M237.18 160.637V156.577H239.4C240.98 156.577 241.68 157.337 241.68 158.617C241.68 159.857 240.98 160.637 239.4 160.637H237.18ZM244.56 158.617C244.56 156.197 242.88 154.297 239.52 154.297H234.38V168.257H237.18V162.897H239.52C243.12 162.897 244.56 160.737 244.56 158.617ZM261.308 159.297C262.748 159.297 263.908 160.217 263.948 161.677H258.688C258.908 160.157 259.968 159.297 261.308 159.297ZM266.568 164.777H263.548C263.188 165.517 262.528 166.117 261.328 166.117C259.928 166.117 258.808 165.197 258.668 163.557H266.768C266.828 163.197 266.848 162.837 266.848 162.477C266.848 159.177 264.588 156.997 261.388 156.997C258.108 156.997 255.828 159.217 255.828 162.717C255.828 166.197 258.168 168.437 261.388 168.437C264.128 168.437 265.968 166.817 266.568 164.777ZM286.652 168.257H289.452V161.757C289.452 158.697 287.612 157.017 285.032 157.017C283.612 157.017 282.412 157.617 281.692 158.557V157.177H278.892V168.257H281.692V162.137C281.692 160.357 282.672 159.397 284.192 159.397C285.672 159.397 286.652 160.357 286.652 162.137V168.257ZM301.394 162.717C301.394 166.197 303.674 168.437 306.874 168.437C309.634 168.437 311.494 166.877 312.094 164.517H309.074C308.734 165.517 308.014 166.037 306.854 166.037C305.294 166.037 304.254 164.877 304.254 162.717C304.254 160.557 305.294 159.377 306.854 159.377C308.014 159.377 308.754 159.977 309.074 160.917H312.094C311.494 158.437 309.634 156.997 306.874 156.997C303.674 156.997 301.394 159.237 301.394 162.717ZM323.426 162.677C323.426 166.137 325.666 168.437 328.466 168.437C330.226 168.437 331.486 167.597 332.146 166.637V168.257H334.966V157.177H332.146V158.757C331.486 157.837 330.266 156.997 328.486 156.997C325.666 156.997 323.426 159.217 323.426 162.677ZM332.146 162.717C332.146 164.817 330.746 165.977 329.206 165.977C327.706 165.977 326.286 164.777 326.286 162.677C326.286 160.577 327.706 159.457 329.206 159.457C330.746 159.457 332.146 160.617 332.146 162.717ZM348.14 164.817C348.14 167.357 349.56 168.257 351.68 168.257H353.44V165.897H352.14C351.26 165.897 350.96 165.577 350.96 164.837V159.477H353.44V157.177H350.96V154.437H348.14V157.177H346.82V159.477H348.14V164.817ZM364.734 162.677C364.734 166.137 366.974 168.437 369.774 168.437C371.534 168.437 372.794 167.597 373.454 166.637V168.257H376.274V157.177H373.454V158.757C372.794 157.837 371.574 156.997 369.794 156.997C366.974 156.997 364.734 159.217 364.734 162.677ZM373.454 162.717C373.454 164.817 372.054 165.977 370.514 165.977C369.014 165.977 367.594 164.777 367.594 162.677C367.594 160.577 369.014 159.457 370.514 159.457C372.054 159.457 373.454 160.617 373.454 162.717ZM389.449 164.817C389.449 167.357 390.869 168.257 392.989 168.257H394.749V165.897H393.449C392.569 165.897 392.269 165.577 392.269 164.837V159.477H394.749V157.177H392.269V154.437H389.449V157.177H388.129V159.477H389.449V164.817ZM429.408 168.257H432.948L427.028 161.217L432.788 154.297H429.408L424.328 160.557V154.297H421.528V168.257H424.328V162.037L429.408 168.257ZM449.55 159.297C450.99 159.297 452.15 160.217 452.19 161.677H446.93C447.15 160.157 448.21 159.297 449.55 159.297ZM454.81 164.777H451.79C451.43 165.517 450.77 166.117 449.57 166.117C448.17 166.117 447.05 165.197 446.91 163.557H455.01C455.07 163.197 455.09 162.837 455.09 162.477C455.09 159.177 452.83 156.997 449.63 156.997C446.35 156.997 444.07 159.217 444.07 162.717C444.07 166.197 446.41 168.437 449.63 168.437C452.37 168.437 454.21 166.817 454.81 164.777ZM477.594 157.177H474.774V163.277C474.774 165.057 473.814 166.017 472.294 166.017C470.814 166.017 469.834 165.057 469.834 163.277V157.177H467.034V163.677C467.034 166.717 468.894 168.397 471.474 168.397C472.854 168.397 474.074 167.797 474.774 166.857V168.257H477.594V157.177ZM489.637 162.677C489.637 166.137 491.877 168.437 494.677 168.437C496.437 168.437 497.697 167.597 498.357 166.637V168.257H501.177V157.177H498.357V158.757C497.697 157.837 496.477 156.997 494.697 156.997C491.877 156.997 489.637 159.217 489.637 162.677ZM498.357 162.717C498.357 164.817 496.957 165.977 495.417 165.977C493.917 165.977 492.497 164.777 492.497 162.677C492.497 160.577 493.917 159.457 495.417 159.457C496.957 159.457 498.357 160.617 498.357 162.717ZM521.671 168.257H524.471V161.757C524.471 158.697 522.631 157.017 520.051 157.017C518.631 157.017 517.431 157.617 516.711 158.557V157.177H513.911V168.257H516.711V162.137C516.711 160.357 517.691 159.397 519.211 159.397C520.691 159.397 521.671 160.357 521.671 162.137V168.257ZM536.414 162.677C536.414 166.137 538.654 168.437 541.474 168.437C543.214 168.437 544.474 167.577 545.134 166.617V168.337C545.134 170.397 543.934 171.277 542.394 171.277C540.994 171.277 539.954 170.617 539.674 169.617H536.894C537.174 172.157 539.354 173.717 542.474 173.717C546.114 173.717 547.954 171.337 547.954 168.337V157.177H545.134V158.757C544.474 157.797 543.214 156.997 541.474 156.997C538.654 156.997 536.414 159.217 536.414 162.677ZM545.134 162.717C545.134 164.817 543.734 165.977 542.194 165.977C540.694 165.977 539.274 164.777 539.274 162.677C539.274 160.577 540.694 159.457 542.194 159.457C543.734 159.457 545.134 160.617 545.134 162.717ZM559.969 162.677C559.969 166.137 562.209 168.437 565.009 168.437C566.769 168.437 568.029 167.597 568.689 166.637V168.257H571.509V157.177H568.689V158.757C568.029 157.837 566.809 156.997 565.029 156.997C562.209 156.997 559.969 159.217 559.969 162.677ZM568.689 162.717C568.689 164.817 567.289 165.977 565.749 165.977C564.249 165.977 562.829 164.777 562.829 162.677C562.829 160.577 564.249 159.457 565.749 159.457C567.289 159.457 568.689 160.617 568.689 162.717ZM592.003 168.257H594.803V161.757C594.803 158.697 592.963 157.017 590.383 157.017C588.963 157.017 587.763 157.617 587.043 158.557V157.177H584.243V168.257H587.043V162.137C587.043 160.357 588.023 159.397 589.543 159.397C591.023 159.397 592.003 160.357 592.003 162.137V168.257Z" fill="#2685D9"/>
<defs>
<linearGradient id="paint0_linear_2182_4325" x1="0.787841" y1="154.436" x2="166.149" y2="27.808" gradientUnits="userSpaceOnUse">
<stop stop-color="#18ACDA"/>
<stop offset="1" stop-color="#2685D9"/>
</linearGradient>
</defs>
</svg>
