<svg width="30" height="28" viewBox="0 0 30 28" fill="none" xmlns="http://www.w3.org/2000/svg">
<path d="M3.04388 13.1156C2.99927 12.9437 2.996 12.7642 3.0343 12.5909C3.0726 12.4175 3.15148 12.2549 3.26494 12.1152C3.3784 11.9755 3.52347 11.8625 3.68913 11.7848C3.8548 11.7071 4.0367 11.6667 4.22103 11.6666H25.3855C25.5698 11.6667 25.7517 11.7071 25.9174 11.7848C26.083 11.8625 26.2281 11.9755 26.3416 12.1152C26.455 12.2549 26.5339 12.4175 26.5722 12.5909C26.6105 12.7642 26.6072 12.9437 26.5626 13.1156L24.3649 21.5658C24.2336 22.0706 23.9306 22.5187 23.504 22.839C23.0775 23.1592 22.5518 23.3332 22.0106 23.3333H7.59594C7.0547 23.3332 6.52902 23.1592 6.10245 22.839C5.67587 22.5187 5.37288 22.0706 5.24163 21.5658L3.04388 13.1168V13.1156Z" stroke="url(#paint0_linear_1694_4481)" stroke-width="2" stroke-linejoin="round"/>
<path d="M11.1622 16.3333V18.6666M18.4435 16.3333V18.6666M7.52148 11.6666L12.3757 4.66663M22.0842 11.6666L17.2299 4.66663" stroke="url(#paint1_linear_1694_4481)" stroke-width="2" stroke-linecap="round"/>
<defs>
<linearGradient id="paint0_linear_1694_4481" x1="6.61197" y1="14.1115" x2="24.4239" y2="24.1849" gradientUnits="userSpaceOnUse">
<stop stop-color="#1873DA"/>
<stop offset="1" stop-color="#0CB3E6"/>
</linearGradient>
<linearGradient id="paint1_linear_1694_4481" x1="9.74634" y1="7.60045" x2="23.126" y2="11.493" gradientUnits="userSpaceOnUse">
<stop stop-color="#1873DA"/>
<stop offset="1" stop-color="#0CB3E6"/>
</linearGradient>
</defs>
</svg>
