<svg width="28" height="28" viewBox="0 0 28 28" fill="none" xmlns="http://www.w3.org/2000/svg">
<g clip-path="url(#clip0_2183_4355)">
<path d="M4.66602 8.16669H23.3327" stroke="#F35141" stroke-width="1.8" stroke-linecap="round" stroke-linejoin="round"/>
<path d="M11.666 12.8333V19.8333" stroke="#F35141" stroke-width="1.8" stroke-linecap="round" stroke-linejoin="round"/>
<path d="M16.334 12.8333V19.8333" stroke="#F35141" stroke-width="1.8" stroke-linecap="round" stroke-linejoin="round"/>
<path d="M5.83398 8.16669L7.00065 22.1667C7.00065 22.7855 7.24648 23.379 7.68407 23.8166C8.12165 24.2542 8.71515 24.5 9.33398 24.5H18.6673C19.2862 24.5 19.8796 24.2542 20.3172 23.8166C20.7548 23.379 21.0007 22.7855 21.0007 22.1667L22.1673 8.16669" stroke="#F35141" stroke-width="1.8" stroke-linecap="round" stroke-linejoin="round"/>
<path d="M10.5 8.16667V4.66667C10.5 4.35725 10.6229 4.0605 10.8417 3.84171C11.0605 3.62292 11.3572 3.5 11.6667 3.5H16.3333C16.6428 3.5 16.9395 3.62292 17.1583 3.84171C17.3771 4.0605 17.5 4.35725 17.5 4.66667V8.16667" stroke="#F35141" stroke-width="1.8" stroke-linecap="round" stroke-linejoin="round"/>
</g>
<defs>
<clipPath id="clip0_2183_4355">
<rect width="28" height="28" fill="white"/>
</clipPath>
</defs>
</svg>
