<svg width="28" height="28" viewBox="0 0 28 28" fill="none" xmlns="http://www.w3.org/2000/svg">
<path d="M25.6613 14.4976C26.149 14.4976 26.545 14.8859 26.545 15.3652C26.545 15.8435 26.149 16.2306 25.6613 16.2306H24.4282V20.3637C24.4282 22.8664 22.3533 24.8999 19.8034 24.8999H17.9537C17.4649 24.8999 17.0689 24.5117 17.0689 24.0323C17.0689 23.5541 17.4649 23.1658 17.9537 23.1658H19.8034C21.3791 23.1658 22.661 21.91 22.661 20.3637V16.2306H19.6153V17.3817C19.6269 18.8221 18.4484 19.9994 16.9795 20.013H10.5654C9.09775 19.9994 7.9192 18.8221 7.93081 17.3817V16.2306H4.88515V20.3683C4.88515 21.9088 6.16356 23.1624 7.73458 23.1647L9.6249 23.1658C10.1126 23.1658 10.5085 23.5541 10.5085 24.0323C10.5074 24.5117 10.1126 24.8999 9.62374 24.8999L7.73226 24.8988C5.18821 24.8965 3.11675 22.8641 3.11675 20.3683V16.2306H1.88478C1.39711 16.2306 1 15.8435 1 15.3652C1 14.8859 1.39711 14.4976 1.88478 14.4976H25.6613Z" fill="url(#paint0_linear_2183_4342)"/>
<path d="M24.5231 8.53542C24.5231 6.0339 22.4493 4.00034 19.8983 4.00034H18.0486C17.5609 4.00034 17.165 4.38861 17.165 4.86796C17.165 5.34618 17.5609 5.7333 18.0486 5.7333H19.8983C21.4739 5.7333 22.7558 6.99033 22.7558 8.53542V10.6908C22.7558 11.169 23.1518 11.5584 23.6394 11.5584C24.1283 11.5584 24.5231 11.169 24.5231 10.6908V8.53542Z" fill="url(#paint1_linear_2183_4342)"/>
<path d="M10.6035 4.86762C10.6035 4.38827 10.2076 4 9.71989 4L7.82724 4.00114C5.28319 4.00342 3.21289 6.03583 3.21289 8.53166V10.6905C3.21289 11.1687 3.60884 11.5581 4.09651 11.5581C4.58419 11.5581 4.9813 11.1687 4.9813 10.6905V8.53166C4.9813 6.99112 6.25855 5.73752 7.8284 5.73524L9.71989 5.7341C10.2087 5.7341 10.6035 5.34584 10.6035 4.86762Z" fill="url(#paint2_linear_2183_4342)"/>
<path d="M18.8488 9.11504C18.3577 8.62202 17.683 8.34534 16.9806 8.34534H10.5665C9.09878 8.36014 7.91907 9.53632 7.93174 10.9767V12.4227C7.93533 12.5912 8.0735 12.729 8.24535 12.7347H19.2993C19.4724 12.7301 19.6105 12.5923 19.6163 12.4227V10.9767C19.6175 10.281 19.3435 9.61261 18.8488 9.11504Z" fill="url(#paint3_linear_2183_4342)"/>
<defs>
<linearGradient id="paint0_linear_2183_4342" x1="4.9027" y1="16.6775" x2="22.1995" y2="28.5574" gradientUnits="userSpaceOnUse">
<stop stop-color="#1873DA"/>
<stop offset="1" stop-color="#0CB3E6"/>
</linearGradient>
<linearGradient id="paint1_linear_2183_4342" x1="6.46861" y1="5.58393" x2="19.5627" y2="15.9093" gradientUnits="userSpaceOnUse">
<stop stop-color="#1873DA"/>
<stop offset="1" stop-color="#0CB3E6"/>
</linearGradient>
<linearGradient id="paint2_linear_2183_4342" x1="6.46861" y1="5.58393" x2="19.5627" y2="15.9093" gradientUnits="userSpaceOnUse">
<stop stop-color="#1873DA"/>
<stop offset="1" stop-color="#0CB3E6"/>
</linearGradient>
<linearGradient id="paint3_linear_2183_4342" x1="9.7168" y1="9.26516" x2="17.2081" y2="14.8428" gradientUnits="userSpaceOnUse">
<stop stop-color="#1873DA"/>
<stop offset="1" stop-color="#0CB3E6"/>
</linearGradient>
</defs>
</svg>
