<svg width="32" height="32" viewBox="0 0 32 32" fill="none" xmlns="http://www.w3.org/2000/svg">
<g clip-path="url(#clip0_2035_4185)">
<path d="M5.33268 16H26.666V10.6667H5.33268V16ZM26.666 29.3334C26.2882 29.3334 25.9718 29.2054 25.7167 28.9494C25.4607 28.6943 25.3327 28.3778 25.3327 28V25.3334H22.666C22.2882 25.3334 21.9718 25.2054 21.7167 24.9494C21.4607 24.6943 21.3327 24.3778 21.3327 24C21.3327 23.6223 21.4607 23.3058 21.7167 23.0507C21.9718 22.7947 22.2882 22.6667 22.666 22.6667H25.3327V20C25.3327 19.6223 25.4607 19.3054 25.7167 19.0494C25.9718 18.7943 26.2882 18.6667 26.666 18.6667C27.0438 18.6667 27.3602 18.7943 27.6153 19.0494C27.8713 19.3054 27.9993 19.6223 27.9993 20V22.6667H30.666C31.0438 22.6667 31.3602 22.7947 31.6153 23.0507C31.8713 23.3058 31.9993 23.6223 31.9993 24C31.9993 24.3778 31.8713 24.6943 31.6153 24.9494C31.3602 25.2054 31.0438 25.3334 30.666 25.3334H27.9993V28C27.9993 28.3778 27.8713 28.6943 27.6153 28.9494C27.3602 29.2054 27.0438 29.3334 26.666 29.3334ZM5.33268 26.6667C4.59935 26.6667 3.97179 26.4058 3.45002 25.884C2.92735 25.3614 2.66602 24.7334 2.66602 24V8.00004C2.66602 7.26671 2.92735 6.63915 3.45002 6.11737C3.97179 5.59471 4.59935 5.33337 5.33268 5.33337H26.666C27.3993 5.33337 28.0273 5.59471 28.55 6.11737C29.0718 6.63915 29.3327 7.26671 29.3327 8.00004V16H25.3327C23.4882 16 21.9162 16.6498 20.6167 17.9494C19.3162 19.2498 18.666 20.8223 18.666 22.6667V26.6667H5.33268Z" fill="url(#paint0_linear_2035_4185)"/>
</g>
<defs>
<linearGradient id="paint0_linear_2035_4185" x1="7.1475" y1="10.3628" x2="33.3205" y2="19.3097" gradientUnits="userSpaceOnUse">
<stop stop-color="#1873DA"/>
<stop offset="1" stop-color="#0CB3E6"/>
</linearGradient>
<clipPath id="clip0_2035_4185">
<rect width="32" height="32" fill="white"/>
</clipPath>
</defs>
</svg>
