<svg width="32" height="32" viewBox="0 0 32 32" fill="none" xmlns="http://www.w3.org/2000/svg">
<path d="M18.736 2.44395C18.5312 2.27658 18.2953 2.15149 18.0418 2.07592C17.7883 2.00036 17.5224 1.97581 17.2594 2.00371C16.9964 2.03161 16.7415 2.1114 16.5095 2.23847C16.2776 2.36553 16.0731 2.53734 15.908 2.74395L10.116 9.99995H12.676L17.47 3.99195L19.01 5.24995L15.15 9.99995H17.726L20.56 6.51195L23.996 9.31795L23.4 9.99995H24C24.5964 9.99932 25.1896 10.0876 25.76 10.262C25.9779 9.85321 26.0471 9.38152 25.956 8.9274C25.8648 8.47328 25.6188 8.06489 25.26 7.77195L18.736 2.44395ZM6 11C6 10.7347 6.10536 10.4804 6.29289 10.2928C6.48043 10.1053 6.73478 9.99995 7 9.99995H8.116L9.706 7.99995H7C6.20435 7.99995 5.44129 8.31602 4.87868 8.87863C4.31607 9.44124 4 10.2043 4 11V23C4 24.326 4.52678 25.5978 5.46447 26.5355C6.40215 27.4732 7.67392 28 9 28H24C25.0609 28 26.0783 27.5785 26.8284 26.8284C27.5786 26.0782 28 25.0608 28 24V16C28 14.9391 27.5786 13.9217 26.8284 13.1715C26.0783 12.4214 25.0609 12 24 12H7C6.73478 12 6.48043 11.8946 6.29289 11.7071C6.10536 11.5195 6 11.2652 6 11ZM21 20H23C23.2652 20 23.5196 20.1053 23.7071 20.2928C23.8946 20.4804 24 20.7347 24 21C24 21.2652 23.8946 21.5195 23.7071 21.7071C23.5196 21.8946 23.2652 22 23 22H21C20.7348 22 20.4804 21.8946 20.2929 21.7071C20.1054 21.5195 20 21.2652 20 21C20 20.7347 20.1054 20.4804 20.2929 20.2928C20.4804 20.1053 20.7348 20 21 20Z" fill="url(#paint0_linear_1955_4173)"/>
<defs>
<linearGradient id="paint0_linear_1955_4173" x1="7.66667" y1="7.44263" x2="30.0896" y2="13.23" gradientUnits="userSpaceOnUse">
<stop stop-color="#1873DA"/>
<stop offset="1" stop-color="#0CB3E6"/>
</linearGradient>
</defs>
</svg>
